<svg width="211" height="73" viewBox="0 0 211 73" fill="none" xmlns="http://www.w3.org/2000/svg">
<path d="M132.671 52.2324H134.938L144.499 20.9287H150.66L134.654 72.417H128.775L133.309 57.5439H128.422L116.24 20.9287H122.827L132.671 52.2324ZM57.0137 41.6709L62.8467 51.7734L40.1338 44.7607L31.0693 69.8252L25.5635 60.2871L32.3037 41.9951L32.3096 41.9736L34.9756 35.0078L57.0137 41.6709ZM30.6475 65.0674L30.6484 65.0693L38.8896 42.2715L30.6475 65.0674ZM23.7393 37.2764L23.7549 37.292L28.4541 43.084L11.665 58.8379L0 58.8369L17.4287 42.6738L0.255859 22.292H11.2686L23.7393 37.2764ZM196.715 20.0791C198.367 20.0791 199.996 20.2678 201.602 20.6455C203.254 20.976 204.741 21.5431 206.063 22.3457C207.386 23.1011 208.448 24.1158 209.251 25.3906C210.054 26.6654 210.455 28.2472 210.455 30.1357V57.5439H204.435V51.5957H202.239C201.248 54.0505 199.737 55.7972 197.707 56.8359C195.677 57.8747 193.481 58.3945 191.12 58.3945C189.94 58.3945 188.665 58.2058 187.296 57.8281C185.927 57.4976 184.652 56.9065 183.472 56.0566C182.291 55.1596 181.3 53.9561 180.497 52.4453C179.694 50.8872 179.293 48.9272 179.293 46.5664C179.293 42.8838 180.615 40.1929 183.259 38.4932C185.903 36.7934 189.562 35.9434 194.236 35.9434H204.435V31.4814C204.435 30.3012 204.199 29.3335 203.727 28.5781C203.254 27.7755 202.617 27.1372 201.814 26.665C201.059 26.1929 200.209 25.8627 199.265 25.6738C198.32 25.485 197.376 25.3906 196.432 25.3906C193.882 25.3907 191.757 25.8864 190.058 26.8779C188.358 27.8222 187.414 29.64 187.225 32.3311H181.205C181.3 30.0649 181.771 28.1527 182.621 26.5947C183.518 25.0367 184.651 23.7851 186.021 22.8408C187.437 21.8494 189.066 21.1417 190.907 20.7168C192.749 20.2919 194.685 20.0791 196.715 20.0791ZM84.9062 28.6484H87.2432L110.332 6.97656H119.256L95.8135 28.7197L120.105 57.5439H111.182L91.8467 34.3145H84.9062V57.5439H78.1787V6.97656H84.9062V28.6484ZM161.988 24.8945H164.255C164.821 23.9504 165.341 23.2185 165.813 22.6992C166.286 22.18 166.923 21.8024 167.726 21.5664C168.575 21.2832 169.661 21.1175 170.983 21.0703C172.305 20.9759 174.076 20.9287 176.295 20.9287V26.2402H161.988V57.5439H155.969V20.9287H161.988V24.8945ZM5.12988 56.8252L5.13184 56.8242L10.8672 51.5059L5.12988 56.8252ZM195.016 40.334C193.599 40.334 192.3 40.4283 191.12 40.6172C189.94 40.806 188.901 41.1372 188.004 41.6094C187.154 42.0815 186.493 42.7189 186.021 43.5215C185.548 44.324 185.313 45.3391 185.312 46.5664C185.312 47.369 185.431 48.172 185.667 48.9746C185.95 49.7299 186.375 50.4146 186.941 51.0283C187.508 51.5949 188.217 52.0676 189.066 52.4453C189.963 52.8229 191.026 53.0117 192.253 53.0117C194.141 53.0117 195.676 52.7758 196.856 52.3037C198.084 51.8316 199.053 51.2645 199.761 50.6035C200.516 49.9426 201.059 49.282 201.39 48.6211C201.767 47.9603 202.05 47.4643 202.239 47.1338H204.435V40.334H195.016ZM4.58398 24.3057L20.208 42.8428L4.58691 24.3047L4.58398 24.3057ZM31.2861 23.1758L57.5244 18.4941L52.0186 28.0312L32.8066 31.3408L32.7852 31.3457L25.4199 32.5195L20.1709 10.1025L26.0029 0L31.2861 23.1758ZM26.9561 30.2354V30.2373L31.2861 29.5449L26.9561 30.2354ZM22.3105 10.4219L24.2227 18.5742L22.3115 10.4209L25.1807 5.45117V5.4502L22.3105 10.4219Z" fill="#A66F0B"/>
</svg>
