<svg width="63" height="70" viewBox="0 0 63 70" fill="none" xmlns="http://www.w3.org/2000/svg">
<path d="M57.0137 41.6709L62.8467 51.7734L40.1338 44.7607L31.0693 69.8252L25.5635 60.2871L32.3037 41.9951L32.3096 41.9736L34.9756 35.0078L57.0137 41.6709ZM30.6475 65.0674L30.6484 65.0693L38.8896 42.2715L30.6475 65.0674ZM23.7393 37.2764L23.7549 37.292L28.4541 43.084L11.665 58.8379L0 58.8369L17.4287 42.6738L0.255859 22.292H11.2686L23.7393 37.2764ZM5.12988 56.8252L5.13184 56.8242L10.8672 51.5059L5.12988 56.8252ZM4.58398 24.3057L20.208 42.8428L4.58691 24.3047L4.58398 24.3057ZM31.2861 23.1758L57.5244 18.4941L52.0186 28.0312L32.8066 31.3408L32.7852 31.3457L25.4199 32.5195L20.1709 10.1025L26.0029 0L31.2861 23.1758ZM26.9561 30.2354V30.2373L31.2861 29.5449L26.9561 30.2354ZM22.3105 10.4219L24.2227 18.5742L22.3115 10.4209L25.1807 5.45117V5.4502L22.3105 10.4219Z" fill="black"/>
</svg>
