<svg width="140" height="19" viewBox="0 0 140 19" fill="none" xmlns="http://www.w3.org/2000/svg">
<path d="M8.7208 0.921918C9.12344 -0.307307 10.8766 -0.307306 11.2792 0.921919L12.7178 5.31388C12.8979 5.8636 13.4143 6.2358 13.997 6.2358H18.6524C19.9554 6.2358 20.4971 7.88971 19.443 8.64941L15.6767 11.3638C15.2053 11.7035 15.008 12.3058 15.1881 12.8555L16.6267 17.2474C17.0293 18.4767 15.611 19.4988 14.5569 18.7391L10.7906 16.0248C10.3192 15.685 9.68083 15.685 9.20941 16.0248L5.44311 18.7391C4.389 19.4988 2.97069 18.4767 3.37333 17.2474L4.81193 12.8555C4.99199 12.3058 4.79473 11.7035 4.32332 11.3638L0.557018 8.64941C-0.497098 7.88971 0.0446463 6.2358 1.3476 6.2358H6.00301C6.58571 6.2358 7.10214 5.8636 7.28221 5.31388L8.7208 0.921918Z" fill="#A66F0B"/>
<path d="M38.7208 0.921918C39.1234 -0.307307 40.8766 -0.307306 41.2792 0.921919L42.7178 5.31388C42.8979 5.8636 43.4143 6.2358 43.997 6.2358H48.6524C49.9554 6.2358 50.4971 7.88971 49.443 8.64941L45.6767 11.3638C45.2053 11.7035 45.008 12.3058 45.1881 12.8555L46.6267 17.2474C47.0293 18.4767 45.611 19.4988 44.5569 18.7391L40.7906 16.0248C40.3192 15.685 39.6808 15.685 39.2094 16.0248L35.4431 18.7391C34.389 19.4988 32.9707 18.4767 33.3733 17.2474L34.8119 12.8555C34.992 12.3058 34.7947 11.7035 34.3233 11.3638L30.557 8.64941C29.5029 7.88971 30.0446 6.2358 31.3476 6.2358H36.003C36.5857 6.2358 37.1021 5.8636 37.2822 5.31388L38.7208 0.921918Z" fill="#A66F0B"/>
<path d="M68.7208 0.921918C69.1234 -0.307307 70.8766 -0.307306 71.2792 0.921919L72.7178 5.31388C72.8979 5.8636 73.4143 6.2358 73.997 6.2358H78.6524C79.9554 6.2358 80.4971 7.88971 79.443 8.64941L75.6767 11.3638C75.2053 11.7035 75.008 12.3058 75.1881 12.8555L76.6267 17.2474C77.0293 18.4767 75.611 19.4988 74.5569 18.7391L70.7906 16.0248C70.3192 15.685 69.6808 15.685 69.2094 16.0248L65.4431 18.7391C64.389 19.4988 62.9707 18.4767 63.3733 17.2474L64.8119 12.8555C64.992 12.3058 64.7947 11.7035 64.3233 11.3638L60.557 8.64941C59.5029 7.88971 60.0446 6.2358 61.3476 6.2358H66.003C66.5857 6.2358 67.1021 5.8636 67.2822 5.31388L68.7208 0.921918Z" fill="#A66F0B"/>
<path d="M98.7208 0.921918C99.1234 -0.307307 100.877 -0.307306 101.279 0.921919L102.718 5.31388C102.898 5.8636 103.414 6.2358 103.997 6.2358H108.652C109.955 6.2358 110.497 7.88971 109.443 8.64941L105.677 11.3638C105.205 11.7035 105.008 12.3058 105.188 12.8555L106.627 17.2474C107.029 18.4767 105.611 19.4988 104.557 18.7391L100.791 16.0248C100.319 15.685 99.6808 15.685 99.2094 16.0248L95.4431 18.7391C94.389 19.4988 92.9707 18.4767 93.3733 17.2474L94.8119 12.8555C94.992 12.3058 94.7947 11.7035 94.3233 11.3638L90.557 8.64941C89.5029 7.88971 90.0446 6.2358 91.3476 6.2358H96.003C96.5857 6.2358 97.1021 5.8636 97.2822 5.31388L98.7208 0.921918Z" fill="#A66F0B"/>
<path d="M128.721 0.921918C129.123 -0.307307 130.877 -0.307306 131.279 0.921919L132.718 5.31388C132.898 5.8636 133.414 6.2358 133.997 6.2358H138.652C139.955 6.2358 140.497 7.88971 139.443 8.64941L135.677 11.3638C135.205 11.7035 135.008 12.3058 135.188 12.8555L136.627 17.2474C137.029 18.4767 135.611 19.4988 134.557 18.7391L130.791 16.0248C130.319 15.685 129.681 15.685 129.209 16.0248L125.443 18.7391C124.389 19.4988 122.971 18.4767 123.373 17.2474L124.812 12.8555C124.992 12.3058 124.795 11.7035 124.323 11.3638L120.557 8.64941C119.503 7.88971 120.045 6.2358 121.348 6.2358H126.003C126.586 6.2358 127.102 5.8636 127.282 5.31388L128.721 0.921918Z" fill="#A66F0B"/>
</svg>
